<?xml version="1.0" encoding="UTF-8"?>
<svg width="80px" height="80px" viewBox="0 0 80 80" version="1.1" xmlns="http://www.w3.org/2000/svg" xmlns:xlink="http://www.w3.org/1999/xlink">
    <!-- Generator: Sketch 58 (84663) - https://sketch.com -->
    <title>Icono</title>
    <desc>Created with Sketch.</desc>
    <g id="Icono" stroke="none" stroke-width="1" fill="none" fill-rule="evenodd">
        <rect id="Rectangle" x="0" y="0" width="80" height="80"></rect>
        <rect id="Rectangle" x="0" y="0" width="80" height="80"></rect>
        <path d="M65.702069,21.6412632 L70.5320197,17.0130526 L70.5320197,16 L53.7999606,16 L41.8751527,45.7296842 L28.3084138,16 L10.7642167,16 L10.7642167,17.0130526 L16.4063054,23.8164211 C16.9561379,24.3191579 17.243665,25.0543158 17.1705222,25.7945263 L17.1705222,52.5305263 C17.3445517,53.4930526 17.031803,54.4833684 16.3558621,55.1831579 L10,62.8985263 L10,63.8989474 L28.0208867,63.8989474 L28.0208867,62.8858947 L21.6650246,55.1831579 C20.9764729,54.4808421 20.6511133,53.5082105 20.7898325,52.5305263 L20.7898325,29.4046316 L36.608867,63.9115789 L38.4475271,63.9115789 L52.0495764,29.4046316 L52.0495764,56.8934737 C52.0495764,57.6185263 52.0495764,57.7675789 51.5754089,58.2425263 L46.6824039,62.9844211 L46.6824039,64 L70.4210443,64 L70.4210443,62.9869474 L65.7045911,58.3612632 C65.2909557,58.048 65.0765714,57.5225263 65.1648473,57.0122105 L65.1648473,22.9903158 C65.0765714,22.4774737 65.2884335,21.952 65.702069,21.6412632 L65.702069,21.6412632 Z" id="Medium-Copy" fill="#C275F6" fill-rule="nonzero"></path>
    </g>
</svg>