<?xml version="1.0" encoding="UTF-8"?>
<svg width="80px" height="80px" viewBox="0 0 80 80" version="1.1" xmlns="http://www.w3.org/2000/svg" xmlns:xlink="http://www.w3.org/1999/xlink">
    <!-- Generator: Sketch 58 (84663) - https://sketch.com -->
    <title>Icono Copy 2</title>
    <desc>Created with Sketch.</desc>
    <g id="Icono-Copy-2" stroke="none" stroke-width="1" fill="none" fill-rule="evenodd">
        <rect id="Rectangle" x="0" y="0" width="80" height="80"></rect>
        <g id="phone-call-copy" transform="translate(16.000000, 16.000000)" fill="#C275F6" fill-rule="nonzero">
            <path d="M46.7667789,37.3073159 L38.8136952,29.3510779 C37.1654785,27.7020944 34.4975444,27.701813 32.8490465,29.3510779 L30.8607052,31.3402312 C29.2159573,32.9854633 26.5403357,32.9852757 24.8894003,31.3336661 L16.5623483,23.1135082 C14.9177878,21.4682761 14.9177878,18.7915617 16.5623483,17.1463297 L18.5505957,15.1572702 C20.1951562,13.5121319 20.1951562,10.8353238 18.5505957,9.19009169 L10.5976995,1.23385371 C8.95313911,-0.411378357 6.27723623,-0.411190781 4.63295706,1.23385371 L2.64489706,3.22291321 C0.06415032,5.80462014 -0.694848722,11.4968117 0.664055813,18.0779276 C1.53011722,22.2722283 4.02170783,30.347671 10.9784178,37.3072221 C17.9210653,44.2527988 25.9277739,46.6364251 30.0824874,47.4390643 C34.6493254,48.3213296 41.512473,48.5306648 44.7784377,45.2635539 L46.7668726,43.2744006 C48.4110581,41.6292624 48.4110581,38.9524542 46.7667789,37.3073159 Z M6.62139205,3.22291321 C7.16964136,2.67453378 8.06139023,2.67443999 8.60973329,3.22291321 L16.5627233,11.1791512 C17.1109726,11.7276244 17.1109726,12.6198313 16.5627233,13.1683045 L15.5735683,14.1578634 L5.6321433,4.21256597 L6.62139205,3.22291321 Z M30.6157368,44.6771903 C26.7768666,43.9356072 19.3793447,41.7335548 12.9666653,35.3182564 C6.52792342,28.8766974 4.22027008,21.3952151 3.41777109,17.5089147 C2.35474118,12.3610697 2.79733437,8.49146362 3.82952057,6.38723225 L13.6842269,16.246057 C11.8756979,18.9757617 12.172885,22.7002775 14.5808508,25.1091328 L22.9079028,33.3292907 C25.308931,35.7312995 29.02977,36.03039 31.7607041,34.2197156 L41.6233791,44.0865124 C38.6179454,45.6112267 33.9440451,45.3201082 30.6157368,44.6771903 Z M44.7785314,41.2853411 L43.7892827,42.2749939 L33.8480452,32.3297902 L34.8372002,31.3402312 C35.3865745,30.7905388 36.2758859,30.7905388 36.8254477,31.3402312 L44.7784377,39.2964692 C45.3265932,39.8447549 45.3265932,40.7370555 44.7785314,41.2853411 Z" id="Shape"></path>
            <path d="M27.3749828,0 C26.6156065,0 26,0.615606467 26,1.37498281 C26,2.13435915 26.6156065,2.74996562 27.3749828,2.74996562 C37.231288,2.74996562 45.2500344,10.768712 45.2500344,20.6250172 C45.2500344,21.3843935 45.8656409,22 46.6250172,22 C47.3843935,22 48,21.3843935 48,20.6250172 C48,9.2523433 38.7476567,0 27.3749828,0 Z" id="Path"></path>
            <path d="M26.4166509,6 C25.6342621,6 25,6.63426209 25,7.41665092 C25,8.19903975 25.6342621,8.83330184 26.4166509,8.83330184 C33.4470031,8.83330184 39.1666982,14.5529969 39.1666982,21.5833491 C39.1666982,22.3657379 39.8009602,23 40.5833491,23 C41.3657379,23 42,22.3657379 42,21.5833491 C42,12.9906754 35.0093246,6 26.4166509,6 Z" id="Path"></path>
            <path d="M27.3749885,11 C26.615609,11 26,11.615609 26,12.3749885 C26,13.134368 26.615609,13.7499771 27.3749885,13.7499771 C31.1659262,13.7499771 34.2500229,16.8340738 34.2500229,20.6250115 C34.2500229,21.384391 34.865632,22 35.6250115,22 C36.384391,22 37,21.384391 37,20.6250115 C37,15.3177904 32.6822096,11 27.3749885,11 Z" id="Path"></path>
            <path d="M26.5,17 C25.6715791,17 25,17.6715791 25,18.5 C25,19.3284209 25.6715791,20 26.5,20 C27.3271206,20 28,20.6728794 28,21.5 C28,22.3284209 28.6715791,23 29.5,23 C30.3284209,23 31,22.3284209 31,21.5 C31.0001,19.0186383 28.9813617,17 26.5,17 Z" id="Path"></path>
        </g>
    </g>
</svg>